<svg width="1440" height="420" viewBox="0 0 1440 420" fill="none" xmlns="http://www.w3.org/2000/svg" role="img" aria-labelledby="title description">
  <title id="title">XFlow — Read with intention</title>
  <desc id="description">A monochrome technical banner showing noise entering a policy veil and leaving as a clear signal.</desc>

  <rect width="1440" height="420" rx="8" fill="#0A0A0A"/>
  <rect x="1" y="1" width="1438" height="418" rx="7" stroke="#3F3F46"/>

  <g stroke="#262626" stroke-width="1">
    <path d="M0 84H1440"/>
    <path d="M0 336H1440"/>
    <path d="M720 84V336"/>
    <path d="M1080 84V336"/>
    <path d="M90 84V336"/>
  </g>

  <g font-family="ui-monospace, SFMono-Regular, Menlo, Monaco, Consolas, monospace" font-size="12" font-weight="600" letter-spacing="2.2">
    <text x="36" y="50" fill="#F5F5F5">SYSTEM / XFLOW</text>
    <text x="1404" y="50" text-anchor="end" fill="#737373">MV3 · 0.1.0 · LOCAL FIRST</text>
    <text x="36" y="382" fill="#737373">POLICY-DRIVEN CONTENT FILTERING FOR X / TWITTER</text>
    <text x="1404" y="382" text-anchor="end" fill="#F5F5F5">READ WITH INTENTION.</text>
  </g>

  <g transform="translate(90 126)">
    <text x="0" y="102" fill="#F5F5F5" font-family="Arial Narrow, Arial, Verdana, sans-serif" font-size="112" font-weight="700" letter-spacing="5">XFLOW</text>
    <text x="7" y="150" fill="#A3A3A3" font-family="ui-monospace, SFMono-Regular, Menlo, Monaco, Consolas, monospace" font-size="15" font-weight="500" letter-spacing="3.6">LESS NOISE. MORE SIGNAL.</text>
  </g>

  <g font-family="ui-monospace, SFMono-Regular, Menlo, Monaco, Consolas, monospace" font-size="11" font-weight="600" letter-spacing="1.8">
    <text x="760" y="118" fill="#737373">01 / NOISE</text>
    <text x="940" y="118" fill="#F5F5F5">02 / POLICY VEIL</text>
    <text x="1160" y="118" fill="#A3A3A3">03 / SIGNAL</text>
  </g>

  <g stroke="#737373" stroke-linecap="square">
    <path d="M760 150H882"/>
    <path d="M760 176H858"/>
    <path d="M760 202H890"/>
    <path d="M760 228H842"/>
    <path d="M760 254H874"/>
    <path d="M760 280H854"/>
    <path d="M882 150L924 176" stroke="#404040"/>
    <path d="M858 176L924 190" stroke="#404040"/>
    <path d="M890 202H924" stroke="#404040"/>
    <path d="M842 228L924 214" stroke="#404040"/>
    <path d="M874 254L924 228" stroke="#404040"/>
    <path d="M854 280L924 242" stroke="#404040"/>
  </g>

  <g>
    <rect x="924" y="138" width="174" height="158" rx="8" fill="#121212" stroke="#8A8A8A"/>
    <rect x="940" y="154" width="142" height="126" rx="4" fill="#1A1A1A" stroke="#404040"/>
    <path d="M960 182H1062M960 206H1040M960 230H1054M960 254H1026" stroke="#737373" stroke-width="7"/>
    <path d="M1088 217H1142" stroke="#F5F5F5" stroke-width="2"/>
    <circle cx="1142" cy="217" r="4" fill="#F5F5F5"/>
  </g>

  <g stroke="#D4D4D4" stroke-width="2" stroke-linecap="square">
    <path d="M1146 176H1360"/>
    <path d="M1146 217H1314"/>
    <path d="M1146 258H1342"/>
  </g>
  <g fill="#F5F5F5">
    <rect x="1356" y="172" width="8" height="8"/>
    <rect x="1310" y="213" width="8" height="8"/>
    <rect x="1338" y="254" width="8" height="8"/>
  </g>
</svg>
